<svg width="568" height="434" viewBox="0 0 568 434" fill="none" xmlns="http://www.w3.org/2000/svg">
<path fill-rule="evenodd" clip-rule="evenodd" d="M279.736 33.4323C320.357 39.7865 360.116 35.3398 399.139 48.2992C454.647 66.7328 523.752 73.1594 552.652 124.066C582.016 175.79 561.925 242.182 540.773 297.781C520.404 351.318 490.163 408.878 436.616 429.061C385.359 448.38 333.895 404.318 279.736 396.168C237.037 389.743 194.375 401.115 153.74 386.497C100.392 367.305 37.2077 350.828 12.1623 299.908C-13.4207 247.895 6.5166 184.793 28.0605 130.976C48.5129 79.8867 78.4923 26.0295 129.756 6.16077C178.33 -12.6653 228.274 25.3825 279.736 33.4323Z" fill="#42E2B8"/>
</svg>
